<?xml version="1.0" encoding="utf-8"?>
<svg id="master-artboard" xmlns="http://www.w3.org/2000/svg" viewBox="0 0 153.2897186279297 143.1962890625" width="153.2897186279297px" height="143.1962890625px"><rect id="ee-background" x="0" y="0" width="153.2897186279297" height="143.1962890625" style="fill: white; fill-opacity: 0; pointer-events: none;"/><defs><linearGradient x1="76.2262818%" y1="7.42592781%" x2="23.6511094%" y2="92.5990252%" id="linearGradient-1">
            <stop stop-color="#00EAFF" offset="0%"/>
            <stop stop-color="#0080FF" offset="25.2530882%"/>
            <stop stop-color="#8000FF" offset="49.7394282%"/>
            <stop stop-color="#E619E6" offset="74.9912298%"/>
            <stop stop-color="#FF0000" offset="99.9136118%"/>
        </linearGradient></defs><g transform="matrix(0.5213763117790222, 0, 0, 0.5213763117790222, 1.0093460083007812, 1.2206649780273438)"><title>logo</title><g id="Page-1" stroke="none" stroke-width="1" fill="none" fill-rule="evenodd">
        <g id="logo" fill-rule="nonzero">
            <g id="Bridge" transform="translate(348.780000, 48.810000)" fill="#FFFFFF">
                <path d="M80.75,83.79 C88.4766667,85.4366667 94.6833333,89.2683333 99.37,95.285 C104.056667,101.301667 106.4,108.173333 106.4,115.9 C106.4,127.046667 102.505,135.881667 94.715,142.405 C86.925,148.928333 76.0633333,152.19 62.13,152.19 L0,152.19 L0,18.81 L60.04,18.81 C73.5933333,18.81 84.2016667,21.9133333 91.865,28.12 C99.5283333,34.3266667 103.36,42.75 103.36,53.39 C103.36,61.2433333 101.301667,67.7666667 97.185,72.96 C93.0683333,78.1533333 87.59,81.7633333 80.75,83.79 Z M32.49,72.77 L53.77,72.77 C59.09,72.77 63.175,71.5983333 66.025,69.255 C68.875,66.9116667 70.3,63.46 70.3,58.9 C70.3,54.34 68.875,50.8566667 66.025,48.45 C63.175,46.0433333 59.09,44.84 53.77,44.84 L32.49,44.84 L32.49,72.77 Z M56.43,125.97 C61.8766667,125.97 66.0883333,124.735 69.065,122.265 C72.0416667,119.795 73.53,116.216667 73.53,111.53 C73.53,106.843333 71.9783333,103.17 68.875,100.51 C65.7716667,97.85 61.4966667,96.52 56.05,96.52 L32.49,96.52 L32.49,125.97 L56.43,125.97 Z" id="Shape"/>
                <path d="M153.7,63.84 C157.5,58.0133333 162.25,53.4216667 167.95,50.065 C173.65,46.7083333 179.983333,45.03 186.95,45.03 L186.95,79.42 L178.02,79.42 C169.913333,79.42 163.833333,81.1616667 159.78,84.645 C155.726667,88.1283333 153.7,94.24 153.7,102.98 L153.7,152.19 L121.21,152.19 L121.21,46.17 L153.7,46.17 L153.7,63.84 Z" id="Path"/>
                <path d="M219.87,35.15 C214.17,35.15 209.515,33.4716667 205.905,30.115 C202.295,26.7583333 200.49,22.61 200.49,17.67 C200.49,12.6033333 202.295,8.39166667 205.905,5.035 C209.515,1.67833333 214.17,0 219.87,0 C225.443333,0 230.035,1.67833333 233.645,5.035 C237.255,8.39166667 239.06,12.6033333 239.06,17.67 C239.06,22.61 237.255,26.7583333 233.645,30.115 C230.035,33.4716667 225.443333,35.15 219.87,35.15 Z M236.02,46.17 L236.02,152.19 L203.53,152.19 L203.53,46.17 L236.02,46.17 Z" id="Shape"/>
                <path d="M250.12,98.99 C250.12,88.0966667 252.178333,78.5333333 256.295,70.3 C260.411667,62.0666667 266.016667,55.7333333 273.11,51.3 C280.203333,46.8666667 288.12,44.65 296.86,44.65 C303.826667,44.65 310.191667,46.1066667 315.955,49.02 C321.718333,51.9333333 326.246667,55.86 329.54,60.8 L329.54,11.59 L362.03,11.59 L362.03,152.19 L329.54,152.19 L329.54,136.99 C326.5,142.056667 322.161667,146.11 316.525,149.15 C310.888333,152.19 304.333333,153.71 296.86,153.71 C288.12,153.71 280.203333,151.461667 273.11,146.965 C266.016667,142.468333 260.411667,136.071667 256.295,127.775 C252.178333,119.478333 250.12,109.883333 250.12,98.99 Z M329.54,99.18 C329.54,91.0733333 327.291667,84.6766667 322.795,79.99 C318.298333,75.3033333 312.82,72.96 306.36,72.96 C299.9,72.96 294.421667,75.2716667 289.925,79.895 C285.428333,84.5183333 283.18,90.8833333 283.18,98.99 C283.18,107.096667 285.428333,113.525 289.925,118.275 C294.421667,123.025 299.9,125.4 306.36,125.4 C312.82,125.4 318.298333,123.056667 322.795,118.37 C327.291667,113.683333 329.54,107.286667 329.54,99.18 Z" id="Shape"/>
                <path d="M423.87,44.65 C431.343333,44.65 437.898333,46.17 443.535,49.21 C449.171667,52.25 453.51,56.24 456.55,61.18 L456.55,46.17 L489.04,46.17 L489.04,152 C489.04,161.753333 487.108333,170.588333 483.245,178.505 C479.381667,186.421667 473.491667,192.723333 465.575,197.41 C457.658333,202.096667 447.81,204.44 436.03,204.44 C420.323333,204.44 407.593333,200.735 397.84,193.325 C388.086667,185.915 382.513333,175.876667 381.12,163.21 L413.23,163.21 C414.243333,167.263333 416.65,170.461667 420.45,172.805 C424.25,175.148333 428.936667,176.32 434.51,176.32 C441.223333,176.32 446.575,174.388333 450.565,170.525 C454.555,166.661667 456.55,160.486667 456.55,152 L456.55,136.99 C453.383333,141.93 449.013333,145.951667 443.44,149.055 C437.866667,152.158333 431.343333,153.71 423.87,153.71 C415.13,153.71 407.213333,151.461667 400.12,146.965 C393.026667,142.468333 387.421667,136.071667 383.305,127.775 C379.188333,119.478333 377.13,109.883333 377.13,98.99 C377.13,88.0966667 379.188333,78.5333333 383.305,70.3 C387.421667,62.0666667 393.026667,55.7333333 400.12,51.3 C407.213333,46.8666667 415.13,44.65 423.87,44.65 Z M456.55,99.18 C456.55,91.0733333 454.301667,84.6766667 449.805,79.99 C445.308333,75.3033333 439.83,72.96 433.37,72.96 C426.91,72.96 421.431667,75.2716667 416.935,79.895 C412.438333,84.5183333 410.19,90.8833333 410.19,98.99 C410.19,107.096667 412.438333,113.525 416.935,118.275 C421.431667,123.025 426.91,125.4 433.37,125.4 C439.83,125.4 445.308333,123.056667 449.805,118.37 C454.301667,113.683333 456.55,107.286667 456.55,99.18 Z" id="Shape"/>
                <path d="M609.54,97.47 C609.54,100.51 609.35,103.676667 608.97,106.97 L535.44,106.97 C535.946667,113.556667 538.068333,118.591667 541.805,122.075 C545.541667,125.558333 550.133333,127.3 555.58,127.3 C563.686667,127.3 569.323333,123.88 572.49,117.04 L607.07,117.04 C605.296667,124.006667 602.098333,130.276667 597.475,135.85 C592.851667,141.423333 587.056667,145.793333 580.09,148.96 C573.123333,152.126667 565.333333,153.71 556.72,153.71 C546.333333,153.71 537.086667,151.493333 528.98,147.06 C520.873333,142.626667 514.54,136.293333 509.98,128.06 C505.42,119.826667 503.14,110.2 503.14,99.18 C503.14,88.16 505.388333,78.5333333 509.885,70.3 C514.381667,62.0666667 520.683333,55.7333333 528.79,51.3 C536.896667,46.8666667 546.206667,44.65 556.72,44.65 C566.98,44.65 576.1,46.8033333 584.08,51.11 C592.06,55.4166667 598.298333,61.56 602.795,69.54 C607.291667,77.52 609.54,86.83 609.54,97.47 Z M576.29,88.92 C576.29,83.3466667 574.39,78.9133333 570.59,75.62 C566.79,72.3266667 562.04,70.68 556.34,70.68 C550.893333,70.68 546.301667,72.2633333 542.565,75.43 C538.828333,78.5966667 536.516667,83.0933333 535.63,88.92 L576.29,88.92 Z" id="Shape"/>
            </g>
            <path d="M290,150.030722 C290,151.408031 289.681294,152.717339 289.07688,153.85359 L226.885456,261.614529 C224.247917,266.184675 219.373545,269 214.098468,269 L75.901533,269 C70.6264556,269 65.7520826,266.184675 63.1145441,261.614529 L0.917311347,153.84332 C0.314661302,152.708958 0,151.405947 0,150.030722 C0,145.570484 3.61431771,141.954747 8.07280495,141.954747 L76.3085013,141.954747 L93.601195,171.339095 L93.7074859,171.51467 C96.0151268,175.221297 100.870544,176.429372 104.653537,174.201359 L104.653537,174.201359 L104.849311,174.082286 C106.593567,172.987225 107.856312,171.264452 108.373481,169.26442 L108.373481,169.26442 L130.408094,84.0493808 L149.328178,221.240664 L149.356844,221.431922 C150.055685,225.747772 154.075894,228.737867 158.428537,228.137125 L158.428537,228.137125 L158.626259,228.107351 C161.777671,227.593014 164.33797,225.26414 165.140779,222.159462 L165.140779,222.159462 L191.700557,119.445139 L202.60577,137.975981 L202.714046,138.154661 C204.185788,140.514195 206.772591,141.954747 209.562511,141.954747 L209.562511,141.954747 L281.927195,141.954747 L281.927195,141.954747 C286.385682,141.954747 290,145.570484 290,150.030722 Z M214.098468,2.84217094e-14 C219.373545,2.84217094e-14 224.247917,2.81532535 226.885456,7.38547079 L289.080763,115.151313 C289.682225,116.286375 290,117.59495 290,118.969278 C290,123.429516 286.385682,127.045253 281.927195,127.045253 L213.467944,127.045253 L196.175251,97.6609048 L196.056225,97.4650535 C194.961594,95.7201118 193.239497,94.4568714 191.24025,93.9394997 L191.24025,93.9394997 L191.052535,93.8932666 C186.796873,92.8980644 182.503359,95.4800599 181.402965,99.7355809 L181.402965,99.7355809 L159.367731,184.949998 L140.448268,47.7593359 L140.418506,47.5615355 C139.90437,44.4088855 137.576411,41.8475814 134.472951,41.0444571 C130.156545,39.9274429 125.752243,42.5224369 124.635666,46.8405383 L124.635666,46.8405383 L98.0752676,149.55424 L87.1706753,131.02402 L87.0623992,130.84534 C85.5906581,128.485805 83.0038547,127.045253 80.2139346,127.045253 L80.2139346,127.045253 L8.07280495,127.045253 L8.07280495,127.045253 C3.61431771,127.045253 0,123.429516 0,118.969278 C0,117.605485 0.306212956,116.315637 0.897759613,115.188172 L63.1145441,7.38547079 C65.7520826,2.81532535 70.6264556,2.84217094e-14 75.901533,2.84217094e-14 L214.098468,2.84217094e-14 Z" id="shape" fill="url(#linearGradient-1)"/>
        </g>
    </g></g></svg>